<svg width="60" height="60" viewBox="0 0 60 60" fill="none" xmlns="http://www.w3.org/2000/svg">
<path d="M30.206 54.5869C43.7866 54.5869 54.7929 43.5788 54.7929 30C54.7929 16.4213 43.7866 5.41315 30.206 5.41315C16.6273 5.41315 5.61914 16.4213 5.61914 30C5.61914 43.5788 16.6273 54.5869 30.206 54.5869ZM30.206 7.38002C42.6785 7.38002 52.826 17.5275 52.826 30C52.826 42.4725 42.6785 52.62 30.206 52.62C17.7316 52.62 7.58602 42.4725 7.58602 30C7.58602 17.5275 17.7316 7.38002 30.206 7.38002Z" fill="white"/>
<path d="M31.6985 40.5694L33.0898 41.9606L45.0485 30L33.0898 18.0394L31.6985 19.4306L41.2835 29.0156H17.4204V30.9825H41.2835L31.6985 40.5694Z" fill="white"/>
</svg>
