<svg width="60" height="60" viewBox="0 0 60 60" fill="none" xmlns="http://www.w3.org/2000/svg">
<g clip-path="url(#clip0_41_556)">
<path d="M35.625 3.24769L50.3558 11.7525C53.8365 13.7621 55.9808 17.476 55.9808 21.4953V38.5049C55.9808 42.5241 53.8365 46.2381 50.3558 48.2477L35.625 56.7525C32.1442 58.7621 27.8558 58.7621 24.375 56.7525L9.64424 48.2477C6.16347 46.2381 4.01924 42.5241 4.01924 38.5049V21.4953C4.01924 17.476 6.16347 13.7621 9.64424 11.7525L24.375 3.24769C27.8558 1.23807 32.1442 1.23807 35.625 3.24769ZM26.6416 6.2844L26.25 6.49529L11.5192 15.0001C9.32086 16.2693 7.92218 18.5583 7.78104 21.074L7.76924 21.4953V38.5049C7.76924 41.0434 9.05222 43.3992 11.1603 44.7793L11.5192 45.0001L26.25 53.5049C28.4416 54.7702 31.1135 54.8405 33.3584 53.7158L33.75 53.5049L48.4808 45.0001C50.6791 43.7309 52.0778 41.4419 52.219 38.9262L52.2308 38.5049V21.4953C52.2308 18.9568 50.9478 16.601 48.8397 15.2209L48.4808 15.0001L33.75 6.49529C31.5584 5.22997 28.8865 5.15968 26.6416 6.2844ZM43.1631 21.6702C43.6492 22.5845 43.3021 23.7198 42.3878 24.206L31.8534 29.8063L31.8535 42.498C31.8535 43.5336 31.014 44.373 29.9785 44.373C28.943 44.373 28.1035 43.5336 28.1035 42.498L28.1034 29.8063L17.5691 24.206C16.6548 23.7198 16.3077 22.5845 16.7939 21.6702C17.28 20.7559 18.4153 20.4088 19.3297 20.8949L29.9784 26.5551L40.6273 20.8949C41.5416 20.4088 42.6769 20.7559 43.1631 21.6702Z" fill="#FF89E7"/>
</g>
<defs>
<clipPath id="clip0_41_556">
<rect width="60" height="60" fill="white"/>
</clipPath>
</defs>
</svg>
