<svg width="60" height="60" viewBox="0 0 60 60" fill="none" xmlns="http://www.w3.org/2000/svg">
<g clip-path="url(#clip0_41_563)">
<path d="M57.5118 14.552L57.4882 14.4339C57.4645 14.3236 57.433 14.2212 57.3858 14.1109C57.3779 14.0873 57.37 14.0558 57.3543 14.0322C57.2991 13.9061 57.2361 13.7959 57.1652 13.6856L57.1022 13.5989C57.0392 13.5123 56.9762 13.4335 56.8974 13.3548C56.8738 13.3311 56.8502 13.2996 56.8265 13.276C56.732 13.1815 56.6296 13.0948 56.5193 13.0161C56.5036 13.0082 56.48 12.9925 56.4642 12.9846C56.3933 12.9373 56.3224 12.8901 56.2437 12.8507L31.0385 0.248113C30.369 -0.0827043 29.5892 -0.0827043 28.9276 0.248113L3.72249 12.8507C3.64373 12.8901 3.57284 12.9373 3.50195 12.9846C3.4862 12.9925 3.46257 13.0082 3.44681 13.0161C3.33654 13.0948 3.23414 13.1815 3.13963 13.276C3.116 13.2996 3.09237 13.3233 3.06874 13.3548C2.99785 13.4335 2.92696 13.5123 2.86394 13.5989L2.80093 13.6856C2.73004 13.7959 2.66703 13.914 2.61189 14.0322C2.60402 14.0558 2.59614 14.0873 2.58039 14.1109C2.541 14.2133 2.5095 14.3236 2.47799 14.4339L2.45436 14.552C2.43073 14.6938 2.41498 14.8356 2.41498 14.9774V45.0345C2.41498 45.9324 2.91908 46.7437 3.72249 47.1454L28.9276 59.7479C28.9434 59.7558 28.967 59.7637 28.9906 59.7716C29.1009 59.8267 29.2269 59.8661 29.3451 59.8976C29.3923 59.9134 29.4317 59.9291 29.479 59.937C29.6444 59.9764 29.8177 60 29.991 60C30.1642 60 30.3375 59.9764 30.5029 59.937C30.5502 59.9291 30.5896 59.9055 30.6368 59.8976C30.7629 59.8661 30.881 59.8188 30.9913 59.7716C31.007 59.7637 31.0307 59.7558 31.0543 59.7479L56.2594 47.1454C56.6518 46.9495 56.9819 46.6483 57.2128 46.2755C57.4437 45.9027 57.5663 45.473 57.5669 45.0345V14.9774C57.5512 14.8356 57.5354 14.6938 57.5118 14.552ZM29.9831 5.01346L49.903 14.9774L42.688 18.5848L31.0228 12.8585C31.007 12.8507 30.9834 12.8507 30.9677 12.8428C30.8653 12.7955 30.755 12.7562 30.6447 12.7246C30.5975 12.7089 30.5502 12.6931 30.4951 12.6774C30.3755 12.6534 30.2544 12.6376 30.1327 12.6301C30.0855 12.6301 30.0382 12.6144 29.991 12.6144H29.9752C29.6365 12.6144 29.3136 12.6853 29.0221 12.8192C29.0143 12.8192 29.0064 12.827 28.9985 12.827L16.837 18.3643L10.0632 14.9774L29.9831 5.01346ZM29.9831 39.9619L21.8308 35.8897L29.9594 31.3213L37.9542 35.9764L29.9831 39.9619ZM40.3408 22.6964V31.9042L32.3461 27.2412V18.7739L40.3408 22.6964ZM27.6201 27.2176L19.1528 31.9751V22.5074L27.6201 18.6479V27.2176ZM7.14094 30.0059V18.7975L14.4268 22.4444V36.0079C14.4268 36.0473 14.4347 36.0866 14.4425 36.1339L14.4662 36.386L14.5134 36.6144C14.5292 36.6853 14.5528 36.7562 14.5764 36.827C14.608 36.9058 14.6395 36.9846 14.6788 37.0633C14.6946 37.1027 14.7104 37.1342 14.7261 37.1736C14.734 37.1972 14.7576 37.2051 14.7655 37.2287C14.86 37.3942 14.9703 37.5438 15.1042 37.6777L15.1278 37.7013C15.2964 37.8641 15.4874 38.0021 15.6949 38.1109C15.7264 38.1267 15.7501 38.1424 15.7816 38.1582C15.8052 38.1661 15.821 38.1818 15.8367 38.1976L27.6201 44.0656V53.809L7.14094 43.5694V30.0059ZM52.8252 43.5694L32.3461 53.809V44.0656L43.7592 38.363C44.1766 38.1544 44.5227 37.8269 44.7541 37.4218C44.9854 37.0166 45.0914 36.552 45.0589 36.0866C45.0589 36.063 45.0668 36.0394 45.0668 36.0158V22.6807L52.8252 18.7975V43.5694Z" fill="black"/>
</g>
<defs>
<clipPath id="clip0_41_563">
<rect width="60" height="60" fill="white"/>
</clipPath>
</defs>
</svg>
